<svg xmlns="http://www.w3.org/2000/svg" viewBox="0 0 900 1200" role="img" aria-labelledby="title desc">
  <title id="title">Modern Jawa wedding invitation preview</title>
  <desc id="desc">Ivory and terracotta invitation visual with subtle batik pattern.</desc>
  <defs>
    <linearGradient id="bg" x1="0" y1="0" x2="1" y2="1">
      <stop offset="0" stop-color="#fff8f1"/>
      <stop offset="0.55" stop-color="#ead8bf"/>
      <stop offset="1" stop-color="#b96b4a"/>
    </linearGradient>
    <pattern id="motif" width="90" height="90" patternUnits="userSpaceOnUse">
      <path d="M45 10c20 16 20 54 0 70C25 64 25 26 45 10Z" fill="none" stroke="#8a5c16" stroke-width="3" opacity=".25"/>
      <circle cx="45" cy="45" r="7" fill="#b98724" opacity=".28"/>
    </pattern>
  </defs>
  <rect width="900" height="1200" fill="url(#bg)"/>
  <rect width="900" height="1200" fill="url(#motif)" opacity=".55"/>
  <rect x="80" y="115" width="740" height="970" rx="38" fill="#fffaf0" opacity=".9"/>
  <path d="M160 250h580M160 940h580" stroke="#b98724" stroke-width="4" opacity=".6"/>
  <text x="450" y="365" text-anchor="middle" font-family="Arial, sans-serif" font-size="38" font-weight="700" fill="#7a5216">SEKAR ARUM</text>
  <text x="450" y="430" text-anchor="middle" font-family="Arial, sans-serif" font-size="88" font-weight="900" fill="#2f2a28">A &amp; R</text>
  <text x="450" y="510" text-anchor="middle" font-family="Arial, sans-serif" font-size="30" fill="#5f5b4f">Modern Jawa</text>
  <circle cx="450" cy="700" r="145" fill="#dfe6d5"/>
  <path d="M360 735c55-105 125-105 180 0" fill="none" stroke="#b96b4a" stroke-width="24" stroke-linecap="round"/>
  <circle cx="395" cy="660" r="34" fill="#2f2a28"/>
  <circle cx="505" cy="660" r="34" fill="#2f2a28"/>
  <text x="450" y="890" text-anchor="middle" font-family="Arial, sans-serif" font-size="24" fill="#5f5b4f">Akad | Resepsi | RSVP</text>
</svg>
